<?xml version="1.0" standalone="no"?>
<!DOCTYPE svg PUBLIC "-//W3C//DTD SVG 20010904//EN"
 "http://www.w3.org/TR/2001/REC-SVG-20010904/DTD/svg10.dtd">
<svg version="1.0" xmlns="http://www.w3.org/2000/svg"
 width="4572.000000pt" height="786.000000pt" viewBox="0 0 4572.000000 786.000000"
 preserveAspectRatio="xMidYMid meet">
<metadata>
Created by potrace 1.16, written by Peter Selinger 2001-2019
</metadata>
<g transform="translate(0.000000,786.000000) scale(0.100000,-0.100000)"
fill="#000000" stroke="none">
<path d="M4045 7850 c-93 -5 -402 -16 -685 -24 -978 -30 -1620 -57 -1807 -76
-50 -5 -116 -19 -147 -30 -56 -21 -106 -67 -106 -98 0 -55 91 -169 177 -219
l45 -26 292 6 c160 4 696 21 1191 39 495 17 1058 32 1250 32 320 1 361 -1 471
-21 234 -43 412 -115 949 -386 296 -149 301 -153 373 -227 l73 -75 -68 -8
c-89 -10 -2505 -118 -3538 -158 -267 -10 -312 -10 -413 5 -247 37 -409 107
-681 296 -221 153 -543 361 -619 400 -130 66 -283 77 -405 30 -156 -60 -296
-280 -357 -566 -19 -87 -23 -147 -30 -499 -20 -947 -6 -2770 22 -2893 26 -110
125 -203 227 -210 50 -4 61 -1 89 23 60 50 61 61 72 774 29 1889 40 2503 46
2566 12 143 39 195 104 195 59 0 124 -42 322 -207 101 -83 219 -177 263 -208
207 -146 339 -323 409 -545 58 -181 56 -115 56 -2126 0 -1765 -3 -2034 -21
-2034 -19 0 -154 124 -437 402 -312 305 -366 348 -436 348 -72 -1 -170 -70
-207 -146 -25 -53 -23 -112 8 -171 25 -48 728 -972 1022 -1343 136 -171 200
-240 301 -324 109 -91 188 -141 314 -202 208 -99 386 -137 646 -138 165 0 230
7 1140 122 2004 254 2513 322 2675 356 239 51 485 154 633 266 243 183 379
457 434 875 17 128 15 3147 -2 3260 -20 131 -80 224 -174 270 -100 49 -227 46
-317 -8 -66 -40 -103 -86 -130 -162 -27 -74 -27 -60 2 -1780 11 -682 18 -1286
14 -1342 -25 -395 -185 -631 -490 -722 -78 -23 -185 -38 -775 -110 -1550 -191
-2722 -299 -2920 -271 -256 36 -421 176 -500 425 -30 94 -36 292 -50 1500 -27
2447 -27 2401 16 2574 53 211 186 397 359 500 72 44 209 95 305 115 175 36
1833 162 3480 266 622 39 695 45 755 65 203 68 193 242 -30 530 -141 181 -337
330 -565 430 -151 67 -1373 522 -1512 563 -366 110 -678 144 -1113 122z"/>
<path d="M20070 7021 c-705 -60 -1243 -379 -1494 -888 -162 -328 -186 -776
-62 -1147 76 -227 235 -462 431 -638 206 -185 330 -259 960 -573 676 -336 887
-460 1039 -610 150 -147 226 -340 226 -571 0 -226 -74 -408 -230 -565 -203
-205 -453 -299 -797 -299 -274 0 -457 64 -608 214 -152 151 -229 345 -242 614
l-6 112 -455 0 -455 0 6 -117 c19 -353 123 -684 295 -943 111 -167 329 -358
511 -449 167 -84 385 -147 606 -176 140 -19 497 -21 650 -5 396 41 712 147
980 329 471 317 692 791 654 1404 -19 307 -111 577 -276 811 -208 292 -646
607 -1213 871 -506 236 -825 422 -1005 587 -159 146 -245 331 -245 527 1 256
123 468 354 616 304 194 806 191 1101 -6 180 -121 298 -322 321 -546 l7 -63
451 0 452 0 -8 78 c-82 776 -585 1298 -1368 1417 -123 18 -444 27 -580 16z"/>
<path d="M12835 6978 c-14 -42 -1545 -5919 -1545 -5932 0 -14 43 -16 405 -16
l405 0 9 23 c5 12 103 399 218 860 l208 837 860 -2 860 -3 207 -850 c114 -467
207 -853 207 -857 1 -5 205 -8 455 -8 250 0 457 3 459 8 2 4 -348 1344 -777
2977 l-782 2970 -592 3 c-469 2 -593 0 -597 -10z m1225 -3435 c0 -10 -140 -13
-665 -13 -366 0 -665 3 -665 8 0 4 149 608 332 1342 l332 1335 333 -1330 c183
-731 333 -1336 333 -1342z"/>
<path d="M25732 6523 l3 -378 438 -3 437 -2 0 -2135 0 -2135 -530 0 -530 0 0
-395 0 -395 1495 0 1495 0 0 395 0 395 -535 0 -535 0 0 2135 0 2135 440 0 440
0 0 380 0 380 -1310 0 -1310 0 2 -377z"/>
<path d="M31880 6510 l0 -390 780 0 780 0 0 -2545 0 -2545 420 0 420 0 0 2545
0 2545 783 2 782 3 3 388 2 387 -1985 0 -1985 0 0 -390z"/>
<path d="M38980 3990 l0 -2910 1798 2 1797 3 3 393 2 392 -1380 0 -1380 0 0
940 0 940 1173 2 1172 3 0 385 0 385 -1172 3 -1173 2 0 815 0 815 1333 2 1332
3 3 368 2 367 -1755 0 -1755 0 0 -2910z"/>
<path d="M4495 4913 c-22 -2 -173 -12 -335 -24 -195 -13 -297 -24 -302 -32
-27 -42 -14 -56 342 -381 231 -211 346 -322 338 -327 -19 -10 -401 -74 -618
-103 -237 -32 -417 -51 -713 -76 -291 -24 -310 -27 -350 -54 -60 -40 -62 -53
-62 -349 l0 -269 34 -30 34 -31 106 6 c58 3 421 35 806 71 384 36 713 66 730
66 19 0 35 -7 43 -20 11 -18 -21 -56 -338 -412 -192 -216 -350 -395 -350 -398
0 -3 8 -15 18 -27 16 -20 21 -21 122 -12 517 45 592 55 682 96 70 31 113 75
599 608 190 209 385 423 432 475 51 55 94 112 103 137 27 69 2 105 -179 265
-137 121 -291 260 -765 691 l-152 137 -92 -2 c-51 -1 -111 -3 -133 -5z"/>
<path d="M44000 1935 l0 -75 135 0 135 0 0 -375 0 -375 95 0 95 0 0 375 0 375
135 0 135 0 0 75 0 75 -365 0 -365 0 0 -75z"/>
<path d="M44840 1560 l0 -450 90 0 90 0 1 353 1 352 23 -95 c13 -52 49 -211
81 -352 l57 -258 93 0 c89 0 94 1 99 23 3 12 39 173 81 357 41 184 77 336 79
339 3 2 5 -158 5 -357 l0 -362 85 0 85 0 0 450 0 450 -134 0 c-120 0 -135 -2
-140 -17 -2 -10 -37 -160 -76 -333 -40 -173 -75 -318 -79 -323 -4 -4 -19 46
-34 110 -15 65 -50 218 -79 341 l-51 222 -139 0 -138 0 0 -450z"/>
</g>
</svg>
